<mxfile host="app.diagrams.net" modified="2020-07-15T19:08:03.150Z" agent="5.0 (Windows NT 10.0; Win64; x64) AppleWebKit/537.36 (KHTML, like Gecko) Chrome/83.0.4103.116 Safari/537.36" etag="ESZymL8N2jPftu9tCxQA" version="13.4.4" type="github">
  <diagram id="C5RBs43oDa-KdzZeNtuy" name="Page-1">
    <mxGraphModel dx="1422" dy="1882" grid="1" gridSize="10" guides="1" tooltips="1" connect="1" arrows="1" fold="1" page="1" pageScale="1" pageWidth="827" pageHeight="1169" math="0" shadow="0">
      <root>
        <mxCell id="WIyWlLk6GJQsqaUBKTNV-0" />
        <mxCell id="WIyWlLk6GJQsqaUBKTNV-1" parent="WIyWlLk6GJQsqaUBKTNV-0" />
        <mxCell id="WIyWlLk6GJQsqaUBKTNV-3" value="Edit Individual Membership" style="rounded=1;whiteSpace=wrap;html=1;fontSize=12;glass=0;strokeWidth=1;shadow=0;" parent="WIyWlLk6GJQsqaUBKTNV-1" vertex="1">
          <mxGeometry x="160" y="80" width="120" height="40" as="geometry" />
        </mxCell>
        <mxCell id="OvOaILnfo7wgloUsC1i8-36" value="" style="edgeStyle=orthogonalEdgeStyle;rounded=0;orthogonalLoop=1;jettySize=auto;html=1;exitX=0.5;exitY=1;exitDx=0;exitDy=0;entryX=1;entryY=0.5;entryDx=0;entryDy=0;" parent="WIyWlLk6GJQsqaUBKTNV-1" source="WIyWlLk6GJQsqaUBKTNV-7" target="OvOaILnfo7wgloUsC1i8-24" edge="1">
          <mxGeometry relative="1" as="geometry">
            <mxPoint x="340" y="1004" as="targetPoint" />
            <Array as="points">
              <mxPoint x="430" y="1004" />
              <mxPoint x="330" y="1004" />
            </Array>
            <mxPoint x="370" y="670" as="sourcePoint" />
          </mxGeometry>
        </mxCell>
        <mxCell id="WIyWlLk6GJQsqaUBKTNV-7" value="Create Organization Level Membership" style="rounded=1;whiteSpace=wrap;html=1;fontSize=12;glass=0;strokeWidth=1;shadow=0;" parent="WIyWlLk6GJQsqaUBKTNV-1" vertex="1">
          <mxGeometry x="370" y="838" width="120" height="42" as="geometry" />
        </mxCell>
        <mxCell id="OvOaILnfo7wgloUsC1i8-5" value="" style="edgeStyle=orthogonalEdgeStyle;rounded=0;orthogonalLoop=1;jettySize=auto;html=1;entryX=0;entryY=0.5;entryDx=0;entryDy=0;" parent="WIyWlLk6GJQsqaUBKTNV-1" source="OvOaILnfo7wgloUsC1i8-1" target="2" edge="1">
          <mxGeometry relative="1" as="geometry">
            <mxPoint x="430" y="190" as="targetPoint" />
            <Array as="points">
              <mxPoint x="540" y="180" />
            </Array>
          </mxGeometry>
        </mxCell>
        <mxCell id="OvOaILnfo7wgloUsC1i8-7" value="No" style="edgeStyle=orthogonalEdgeStyle;rounded=0;orthogonalLoop=1;jettySize=auto;html=1;" parent="WIyWlLk6GJQsqaUBKTNV-1" source="2" target="OvOaILnfo7wgloUsC1i8-6" edge="1">
          <mxGeometry relative="1" as="geometry" />
        </mxCell>
        <mxCell id="0ht5I2Jy_2EhBemdo1K_-7" value="yes" style="edgeStyle=orthogonalEdgeStyle;rounded=0;orthogonalLoop=1;jettySize=auto;html=1;" parent="WIyWlLk6GJQsqaUBKTNV-1" source="2" target="0ht5I2Jy_2EhBemdo1K_-6" edge="1">
          <mxGeometry relative="1" as="geometry" />
        </mxCell>
        <mxCell id="2" value="Are all required fields filled in?" style="rhombus;whiteSpace=wrap;html=1;rounded=0;" parent="WIyWlLk6GJQsqaUBKTNV-1" vertex="1">
          <mxGeometry x="990" y="-70" width="80" height="80" as="geometry" />
        </mxCell>
        <mxCell id="OvOaILnfo7wgloUsC1i8-6" value="Throw validation" style="whiteSpace=wrap;html=1;rounded=0;" parent="WIyWlLk6GJQsqaUBKTNV-1" vertex="1">
          <mxGeometry x="1108.5" y="-60" width="120" height="60" as="geometry" />
        </mxCell>
        <mxCell id="OvOaILnfo7wgloUsC1i8-18" value="" style="edgeStyle=orthogonalEdgeStyle;rounded=0;orthogonalLoop=1;jettySize=auto;html=1;exitX=0.5;exitY=1;exitDx=0;exitDy=0;" parent="WIyWlLk6GJQsqaUBKTNV-1" source="OvOaILnfo7wgloUsC1i8-8" target="OvOaILnfo7wgloUsC1i8-12" edge="1">
          <mxGeometry relative="1" as="geometry">
            <mxPoint x="220" y="780" as="sourcePoint" />
          </mxGeometry>
        </mxCell>
        <mxCell id="OvOaILnfo7wgloUsC1i8-8" value="Update Related" style="whiteSpace=wrap;html=1;rounded=0;" parent="WIyWlLk6GJQsqaUBKTNV-1" vertex="1">
          <mxGeometry x="160" y="690" width="120" height="60" as="geometry" />
        </mxCell>
        <mxCell id="OvOaILnfo7wgloUsC1i8-19" value="No" style="edgeStyle=orthogonalEdgeStyle;rounded=0;orthogonalLoop=1;jettySize=auto;html=1;entryX=0.5;entryY=0;entryDx=0;entryDy=0;" parent="WIyWlLk6GJQsqaUBKTNV-1" source="OvOaILnfo7wgloUsC1i8-12" target="WIyWlLk6GJQsqaUBKTNV-7" edge="1">
          <mxGeometry relative="1" as="geometry">
            <mxPoint x="380" y="529" as="targetPoint" />
          </mxGeometry>
        </mxCell>
        <mxCell id="OvOaILnfo7wgloUsC1i8-25" value="Yes" style="edgeStyle=orthogonalEdgeStyle;rounded=0;orthogonalLoop=1;jettySize=auto;html=1;" parent="WIyWlLk6GJQsqaUBKTNV-1" source="OvOaILnfo7wgloUsC1i8-12" target="OvOaILnfo7wgloUsC1i8-24" edge="1">
          <mxGeometry relative="1" as="geometry" />
        </mxCell>
        <mxCell id="OvOaILnfo7wgloUsC1i8-12" value="Is there an organization level membership?" style="rhombus;whiteSpace=wrap;html=1;shadow=0;fontFamily=Helvetica;fontSize=12;align=center;strokeWidth=1;spacing=6;spacingTop=-4;" parent="WIyWlLk6GJQsqaUBKTNV-1" vertex="1">
          <mxGeometry x="168.5" y="810" width="103" height="98" as="geometry" />
        </mxCell>
        <mxCell id="OvOaILnfo7wgloUsC1i8-1" value="Edit account membership" style="rounded=0;whiteSpace=wrap;html=1;" parent="WIyWlLk6GJQsqaUBKTNV-1" vertex="1">
          <mxGeometry x="160" y="150" width="120" height="60" as="geometry" />
        </mxCell>
        <mxCell id="OvOaILnfo7wgloUsC1i8-17" value="" style="edgeStyle=orthogonalEdgeStyle;rounded=0;orthogonalLoop=1;jettySize=auto;html=1;" parent="WIyWlLk6GJQsqaUBKTNV-1" source="WIyWlLk6GJQsqaUBKTNV-3" target="OvOaILnfo7wgloUsC1i8-1" edge="1">
          <mxGeometry relative="1" as="geometry">
            <mxPoint x="220" y="120" as="sourcePoint" />
            <mxPoint x="220" y="200" as="targetPoint" />
          </mxGeometry>
        </mxCell>
        <mxCell id="OvOaILnfo7wgloUsC1i8-27" value="" style="edgeStyle=orthogonalEdgeStyle;rounded=0;orthogonalLoop=1;jettySize=auto;html=1;" parent="WIyWlLk6GJQsqaUBKTNV-1" source="OvOaILnfo7wgloUsC1i8-24" target="OvOaILnfo7wgloUsC1i8-26" edge="1">
          <mxGeometry relative="1" as="geometry" />
        </mxCell>
        <mxCell id="OvOaILnfo7wgloUsC1i8-24" value="Create Membership Account Members" style="whiteSpace=wrap;html=1;shadow=0;strokeWidth=1;spacing=6;spacingTop=-4;" parent="WIyWlLk6GJQsqaUBKTNV-1" vertex="1">
          <mxGeometry x="160" y="970" width="120" height="67" as="geometry" />
        </mxCell>
        <mxCell id="OvOaILnfo7wgloUsC1i8-29" value="" style="edgeStyle=orthogonalEdgeStyle;rounded=0;orthogonalLoop=1;jettySize=auto;html=1;" parent="WIyWlLk6GJQsqaUBKTNV-1" source="OvOaILnfo7wgloUsC1i8-26" target="OvOaILnfo7wgloUsC1i8-28" edge="1">
          <mxGeometry relative="1" as="geometry" />
        </mxCell>
        <mxCell id="OvOaILnfo7wgloUsC1i8-26" value="Create Subscription Items for membership&lt;br&gt;" style="whiteSpace=wrap;html=1;shadow=0;strokeWidth=1;spacing=6;spacingTop=-4;" parent="WIyWlLk6GJQsqaUBKTNV-1" vertex="1">
          <mxGeometry x="160" y="1090" width="120" height="67" as="geometry" />
        </mxCell>
        <mxCell id="OvOaILnfo7wgloUsC1i8-31" value="" style="edgeStyle=orthogonalEdgeStyle;rounded=0;orthogonalLoop=1;jettySize=auto;html=1;" parent="WIyWlLk6GJQsqaUBKTNV-1" source="OvOaILnfo7wgloUsC1i8-32" target="OvOaILnfo7wgloUsC1i8-30" edge="1">
          <mxGeometry relative="1" as="geometry" />
        </mxCell>
        <mxCell id="OvOaILnfo7wgloUsC1i8-33" value="" style="edgeStyle=orthogonalEdgeStyle;rounded=0;orthogonalLoop=1;jettySize=auto;html=1;" parent="WIyWlLk6GJQsqaUBKTNV-1" source="OvOaILnfo7wgloUsC1i8-28" target="OvOaILnfo7wgloUsC1i8-32" edge="1">
          <mxGeometry relative="1" as="geometry" />
        </mxCell>
        <mxCell id="OvOaILnfo7wgloUsC1i8-28" value="Create order (er100) installments based on the period" style="whiteSpace=wrap;html=1;shadow=0;strokeWidth=1;spacing=6;spacingTop=-4;" parent="WIyWlLk6GJQsqaUBKTNV-1" vertex="1">
          <mxGeometry x="160" y="1200" width="120" height="67" as="geometry" />
        </mxCell>
        <mxCell id="0ht5I2Jy_2EhBemdo1K_-20" value="" style="edgeStyle=orthogonalEdgeStyle;rounded=0;orthogonalLoop=1;jettySize=auto;html=1;" parent="WIyWlLk6GJQsqaUBKTNV-1" source="OvOaILnfo7wgloUsC1i8-30" target="0ht5I2Jy_2EhBemdo1K_-19" edge="1">
          <mxGeometry relative="1" as="geometry" />
        </mxCell>
        <mxCell id="OvOaILnfo7wgloUsC1i8-30" value="Create order install ment (er101s) items based on subscription items. Items are tied to the member via an id or account code" style="whiteSpace=wrap;html=1;shadow=0;strokeWidth=1;spacing=6;spacingTop=-4;" parent="WIyWlLk6GJQsqaUBKTNV-1" vertex="1">
          <mxGeometry x="160" y="1380" width="120" height="105" as="geometry" />
        </mxCell>
        <mxCell id="OvOaILnfo7wgloUsC1i8-32" value="Create order members based account members" style="whiteSpace=wrap;html=1;shadow=0;strokeWidth=1;spacing=6;spacingTop=-4;" parent="WIyWlLk6GJQsqaUBKTNV-1" vertex="1">
          <mxGeometry x="160" y="1290" width="120" height="67" as="geometry" />
        </mxCell>
        <mxCell id="OvOaILnfo7wgloUsC1i8-34" value="" style="edgeStyle=orthogonalEdgeStyle;rounded=0;orthogonalLoop=1;jettySize=auto;html=1;" parent="WIyWlLk6GJQsqaUBKTNV-1" source="OvOaILnfo7wgloUsC1i8-28" target="OvOaILnfo7wgloUsC1i8-32" edge="1">
          <mxGeometry relative="1" as="geometry">
            <mxPoint x="220" y="1260" as="sourcePoint" />
            <mxPoint x="220" y="1380" as="targetPoint" />
          </mxGeometry>
        </mxCell>
        <mxCell id="0ht5I2Jy_2EhBemdo1K_-9" value="No" style="edgeStyle=orthogonalEdgeStyle;rounded=0;orthogonalLoop=1;jettySize=auto;html=1;" parent="WIyWlLk6GJQsqaUBKTNV-1" source="0ht5I2Jy_2EhBemdo1K_-6" target="0ht5I2Jy_2EhBemdo1K_-8" edge="1">
          <mxGeometry relative="1" as="geometry" />
        </mxCell>
        <mxCell id="0ht5I2Jy_2EhBemdo1K_-21" value="No" style="edgeStyle=orthogonalEdgeStyle;rounded=0;orthogonalLoop=1;jettySize=auto;html=1;entryX=1;entryY=0.5;entryDx=0;entryDy=0;exitX=0;exitY=0.5;exitDx=0;exitDy=0;" parent="WIyWlLk6GJQsqaUBKTNV-1" source="0ht5I2Jy_2EhBemdo1K_-23" target="0ht5I2Jy_2EhBemdo1K_-11" edge="1">
          <mxGeometry x="0.0135" relative="1" as="geometry">
            <mxPoint x="470" y="510" as="targetPoint" />
            <mxPoint x="530" y="540" as="sourcePoint" />
            <Array as="points">
              <mxPoint x="510" y="935" />
              <mxPoint x="510" y="290" />
            </Array>
            <mxPoint as="offset" />
          </mxGeometry>
        </mxCell>
        <mxCell id="6Z5Gqcq6EbLOCwVpKTTv-14" value="Yes" style="edgeStyle=orthogonalEdgeStyle;rounded=0;orthogonalLoop=1;jettySize=auto;html=1;" edge="1" parent="WIyWlLk6GJQsqaUBKTNV-1" source="0ht5I2Jy_2EhBemdo1K_-6" target="6Z5Gqcq6EbLOCwVpKTTv-13">
          <mxGeometry relative="1" as="geometry" />
        </mxCell>
        <mxCell id="0ht5I2Jy_2EhBemdo1K_-6" value="Is membership start date within the period" style="rhombus;whiteSpace=wrap;html=1;rounded=0;" parent="WIyWlLk6GJQsqaUBKTNV-1" vertex="1">
          <mxGeometry x="990" y="60" width="80" height="80" as="geometry" />
        </mxCell>
        <mxCell id="0ht5I2Jy_2EhBemdo1K_-8" value="&lt;span&gt;Throw validation&lt;/span&gt;" style="whiteSpace=wrap;html=1;rounded=0;" parent="WIyWlLk6GJQsqaUBKTNV-1" vertex="1">
          <mxGeometry x="1130" y="70" width="120" height="60" as="geometry" />
        </mxCell>
        <mxCell id="6Z5Gqcq6EbLOCwVpKTTv-7" value="" style="edgeStyle=orthogonalEdgeStyle;rounded=0;orthogonalLoop=1;jettySize=auto;html=1;" edge="1" parent="WIyWlLk6GJQsqaUBKTNV-1" source="0ht5I2Jy_2EhBemdo1K_-11" target="6Z5Gqcq6EbLOCwVpKTTv-6">
          <mxGeometry relative="1" as="geometry" />
        </mxCell>
        <mxCell id="0ht5I2Jy_2EhBemdo1K_-11" value="Process" style="whiteSpace=wrap;html=1;rounded=0;" parent="WIyWlLk6GJQsqaUBKTNV-1" vertex="1">
          <mxGeometry x="160" y="260" width="120" height="60" as="geometry" />
        </mxCell>
        <mxCell id="0ht5I2Jy_2EhBemdo1K_-19" value="Create Administrator records&lt;br&gt;" style="whiteSpace=wrap;html=1;shadow=0;strokeWidth=1;spacing=6;spacingTop=-4;" parent="WIyWlLk6GJQsqaUBKTNV-1" vertex="1">
          <mxGeometry x="160" y="1500" width="120" height="105" as="geometry" />
        </mxCell>
        <mxCell id="0ht5I2Jy_2EhBemdo1K_-26" value="Yes" style="edgeStyle=orthogonalEdgeStyle;rounded=0;orthogonalLoop=1;jettySize=auto;html=1;" parent="WIyWlLk6GJQsqaUBKTNV-1" source="0ht5I2Jy_2EhBemdo1K_-23" target="0ht5I2Jy_2EhBemdo1K_-25" edge="1">
          <mxGeometry relative="1" as="geometry" />
        </mxCell>
        <mxCell id="6Z5Gqcq6EbLOCwVpKTTv-31" value="" style="edgeStyle=orthogonalEdgeStyle;rounded=0;orthogonalLoop=1;jettySize=auto;html=1;" edge="1" parent="WIyWlLk6GJQsqaUBKTNV-1" source="0ht5I2Jy_2EhBemdo1K_-23" target="0ht5I2Jy_2EhBemdo1K_-25">
          <mxGeometry relative="1" as="geometry" />
        </mxCell>
        <mxCell id="0ht5I2Jy_2EhBemdo1K_-23" value="&lt;span style=&quot;font-size: 10px&quot;&gt;Has Member Type been changed&lt;/span&gt;" style="rhombus;whiteSpace=wrap;html=1;rounded=0;" parent="WIyWlLk6GJQsqaUBKTNV-1" vertex="1">
          <mxGeometry x="990" y="870" width="140" height="130" as="geometry" />
        </mxCell>
        <mxCell id="0ht5I2Jy_2EhBemdo1K_-25" value="Throw Validation" style="whiteSpace=wrap;html=1;rounded=0;" parent="WIyWlLk6GJQsqaUBKTNV-1" vertex="1">
          <mxGeometry x="1210" y="905" width="120" height="60" as="geometry" />
        </mxCell>
        <mxCell id="6Z5Gqcq6EbLOCwVpKTTv-9" value="Yes" style="edgeStyle=orthogonalEdgeStyle;rounded=0;orthogonalLoop=1;jettySize=auto;html=1;" edge="1" parent="WIyWlLk6GJQsqaUBKTNV-1" source="6Z5Gqcq6EbLOCwVpKTTv-6" target="6Z5Gqcq6EbLOCwVpKTTv-8">
          <mxGeometry relative="1" as="geometry" />
        </mxCell>
        <mxCell id="6Z5Gqcq6EbLOCwVpKTTv-10" value="" style="edgeStyle=orthogonalEdgeStyle;rounded=0;orthogonalLoop=1;jettySize=auto;html=1;entryX=0.5;entryY=0;entryDx=0;entryDy=0;" edge="1" parent="WIyWlLk6GJQsqaUBKTNV-1" source="6Z5Gqcq6EbLOCwVpKTTv-6" target="OvOaILnfo7wgloUsC1i8-8">
          <mxGeometry relative="1" as="geometry">
            <mxPoint x="220" y="550" as="targetPoint" />
          </mxGeometry>
        </mxCell>
        <mxCell id="6Z5Gqcq6EbLOCwVpKTTv-6" value="" style="rhombus;whiteSpace=wrap;html=1;rounded=0;" vertex="1" parent="WIyWlLk6GJQsqaUBKTNV-1">
          <mxGeometry x="180" y="390" width="80" height="80" as="geometry" />
        </mxCell>
        <mxCell id="6Z5Gqcq6EbLOCwVpKTTv-8" value="" style="whiteSpace=wrap;html=1;rounded=0;" vertex="1" parent="WIyWlLk6GJQsqaUBKTNV-1">
          <mxGeometry y="400" width="120" height="60" as="geometry" />
        </mxCell>
        <mxCell id="6Z5Gqcq6EbLOCwVpKTTv-16" value="No" style="edgeStyle=orthogonalEdgeStyle;rounded=0;orthogonalLoop=1;jettySize=auto;html=1;" edge="1" parent="WIyWlLk6GJQsqaUBKTNV-1" source="6Z5Gqcq6EbLOCwVpKTTv-13" target="6Z5Gqcq6EbLOCwVpKTTv-15">
          <mxGeometry relative="1" as="geometry" />
        </mxCell>
        <mxCell id="6Z5Gqcq6EbLOCwVpKTTv-20" value="Yes" style="edgeStyle=orthogonalEdgeStyle;rounded=0;orthogonalLoop=1;jettySize=auto;html=1;" edge="1" parent="WIyWlLk6GJQsqaUBKTNV-1" source="6Z5Gqcq6EbLOCwVpKTTv-13" target="6Z5Gqcq6EbLOCwVpKTTv-19">
          <mxGeometry relative="1" as="geometry" />
        </mxCell>
        <mxCell id="6Z5Gqcq6EbLOCwVpKTTv-13" value="Has Installment changed" style="rhombus;whiteSpace=wrap;html=1;rounded=0;" vertex="1" parent="WIyWlLk6GJQsqaUBKTNV-1">
          <mxGeometry x="990" y="160" width="80" height="80" as="geometry" />
        </mxCell>
        <mxCell id="6Z5Gqcq6EbLOCwVpKTTv-18" value="No" style="edgeStyle=orthogonalEdgeStyle;rounded=0;orthogonalLoop=1;jettySize=auto;html=1;" edge="1" parent="WIyWlLk6GJQsqaUBKTNV-1" source="6Z5Gqcq6EbLOCwVpKTTv-15" target="6Z5Gqcq6EbLOCwVpKTTv-17">
          <mxGeometry relative="1" as="geometry" />
        </mxCell>
        <mxCell id="6Z5Gqcq6EbLOCwVpKTTv-22" value="Yes" style="edgeStyle=orthogonalEdgeStyle;rounded=0;orthogonalLoop=1;jettySize=auto;html=1;" edge="1" parent="WIyWlLk6GJQsqaUBKTNV-1" source="6Z5Gqcq6EbLOCwVpKTTv-15" target="6Z5Gqcq6EbLOCwVpKTTv-21">
          <mxGeometry relative="1" as="geometry" />
        </mxCell>
        <mxCell id="6Z5Gqcq6EbLOCwVpKTTv-15" value="Has Period Changed" style="rhombus;whiteSpace=wrap;html=1;rounded=0;" vertex="1" parent="WIyWlLk6GJQsqaUBKTNV-1">
          <mxGeometry x="990" y="260" width="80" height="80" as="geometry" />
        </mxCell>
        <mxCell id="6Z5Gqcq6EbLOCwVpKTTv-24" value="Yes" style="edgeStyle=orthogonalEdgeStyle;rounded=0;orthogonalLoop=1;jettySize=auto;html=1;" edge="1" parent="WIyWlLk6GJQsqaUBKTNV-1" source="6Z5Gqcq6EbLOCwVpKTTv-17" target="6Z5Gqcq6EbLOCwVpKTTv-23">
          <mxGeometry relative="1" as="geometry" />
        </mxCell>
        <mxCell id="6Z5Gqcq6EbLOCwVpKTTv-32" value="No" style="edgeStyle=orthogonalEdgeStyle;rounded=0;orthogonalLoop=1;jettySize=auto;html=1;" edge="1" parent="WIyWlLk6GJQsqaUBKTNV-1" source="6Z5Gqcq6EbLOCwVpKTTv-17" target="6Z5Gqcq6EbLOCwVpKTTv-26">
          <mxGeometry relative="1" as="geometry" />
        </mxCell>
        <mxCell id="6Z5Gqcq6EbLOCwVpKTTv-17" value="Has Membership Type changed?" style="rhombus;whiteSpace=wrap;html=1;rounded=0;" vertex="1" parent="WIyWlLk6GJQsqaUBKTNV-1">
          <mxGeometry x="990" y="370" width="80" height="80" as="geometry" />
        </mxCell>
        <mxCell id="6Z5Gqcq6EbLOCwVpKTTv-19" value="Throw validation this cannot be changed" style="whiteSpace=wrap;html=1;rounded=0;" vertex="1" parent="WIyWlLk6GJQsqaUBKTNV-1">
          <mxGeometry x="1130" y="170" width="120" height="60" as="geometry" />
        </mxCell>
        <mxCell id="6Z5Gqcq6EbLOCwVpKTTv-21" value="&lt;span&gt;Throw validation this cannot be changed&lt;/span&gt;" style="whiteSpace=wrap;html=1;rounded=0;" vertex="1" parent="WIyWlLk6GJQsqaUBKTNV-1">
          <mxGeometry x="1130" y="270" width="120" height="60" as="geometry" />
        </mxCell>
        <mxCell id="6Z5Gqcq6EbLOCwVpKTTv-23" value="&lt;span&gt;Throw validation this cannot be changed&lt;/span&gt;" style="whiteSpace=wrap;html=1;rounded=0;" vertex="1" parent="WIyWlLk6GJQsqaUBKTNV-1">
          <mxGeometry x="1130" y="380" width="120" height="60" as="geometry" />
        </mxCell>
        <mxCell id="6Z5Gqcq6EbLOCwVpKTTv-25" value="Yes" style="edgeStyle=orthogonalEdgeStyle;rounded=0;orthogonalLoop=1;jettySize=auto;html=1;" edge="1" parent="WIyWlLk6GJQsqaUBKTNV-1" source="6Z5Gqcq6EbLOCwVpKTTv-26" target="6Z5Gqcq6EbLOCwVpKTTv-27">
          <mxGeometry relative="1" as="geometry" />
        </mxCell>
        <mxCell id="6Z5Gqcq6EbLOCwVpKTTv-33" value="No" style="edgeStyle=orthogonalEdgeStyle;rounded=0;orthogonalLoop=1;jettySize=auto;html=1;" edge="1" parent="WIyWlLk6GJQsqaUBKTNV-1" source="6Z5Gqcq6EbLOCwVpKTTv-26" target="6Z5Gqcq6EbLOCwVpKTTv-29">
          <mxGeometry relative="1" as="geometry" />
        </mxCell>
        <mxCell id="6Z5Gqcq6EbLOCwVpKTTv-26" value="Has Classification Changed?" style="rhombus;whiteSpace=wrap;html=1;rounded=0;" vertex="1" parent="WIyWlLk6GJQsqaUBKTNV-1">
          <mxGeometry x="990" y="490" width="80" height="80" as="geometry" />
        </mxCell>
        <mxCell id="6Z5Gqcq6EbLOCwVpKTTv-27" value="&lt;span&gt;Throw validation this cannot be changed&lt;/span&gt;" style="whiteSpace=wrap;html=1;rounded=0;" vertex="1" parent="WIyWlLk6GJQsqaUBKTNV-1">
          <mxGeometry x="1130" y="500" width="120" height="60" as="geometry" />
        </mxCell>
        <mxCell id="6Z5Gqcq6EbLOCwVpKTTv-28" value="Yes" style="edgeStyle=orthogonalEdgeStyle;rounded=0;orthogonalLoop=1;jettySize=auto;html=1;" edge="1" parent="WIyWlLk6GJQsqaUBKTNV-1" source="6Z5Gqcq6EbLOCwVpKTTv-29" target="6Z5Gqcq6EbLOCwVpKTTv-30">
          <mxGeometry relative="1" as="geometry" />
        </mxCell>
        <mxCell id="6Z5Gqcq6EbLOCwVpKTTv-29" value="Has Membership Type changed?" style="rhombus;whiteSpace=wrap;html=1;rounded=0;" vertex="1" parent="WIyWlLk6GJQsqaUBKTNV-1">
          <mxGeometry x="990" y="600" width="80" height="80" as="geometry" />
        </mxCell>
        <mxCell id="6Z5Gqcq6EbLOCwVpKTTv-30" value="&lt;span&gt;Throw validation this cannot be changed&lt;/span&gt;" style="whiteSpace=wrap;html=1;rounded=0;" vertex="1" parent="WIyWlLk6GJQsqaUBKTNV-1">
          <mxGeometry x="1130" y="610" width="120" height="60" as="geometry" />
        </mxCell>
        <mxCell id="6Z5Gqcq6EbLOCwVpKTTv-34" value="No" style="edgeStyle=orthogonalEdgeStyle;rounded=0;orthogonalLoop=1;jettySize=auto;html=1;exitX=0.5;exitY=1;exitDx=0;exitDy=0;entryX=0.5;entryY=0;entryDx=0;entryDy=0;" edge="1" target="6Z5Gqcq6EbLOCwVpKTTv-36" parent="WIyWlLk6GJQsqaUBKTNV-1" source="6Z5Gqcq6EbLOCwVpKTTv-29">
          <mxGeometry relative="1" as="geometry">
            <mxPoint x="1040" y="580" as="sourcePoint" />
            <Array as="points">
              <mxPoint x="1030" y="730" />
            </Array>
          </mxGeometry>
        </mxCell>
        <mxCell id="6Z5Gqcq6EbLOCwVpKTTv-35" value="Yes" style="edgeStyle=orthogonalEdgeStyle;rounded=0;orthogonalLoop=1;jettySize=auto;html=1;" edge="1" source="6Z5Gqcq6EbLOCwVpKTTv-36" target="6Z5Gqcq6EbLOCwVpKTTv-37" parent="WIyWlLk6GJQsqaUBKTNV-1">
          <mxGeometry relative="1" as="geometry" />
        </mxCell>
        <mxCell id="6Z5Gqcq6EbLOCwVpKTTv-36" value="Has Membership Start changed?" style="rhombus;whiteSpace=wrap;html=1;rounded=0;" vertex="1" parent="WIyWlLk6GJQsqaUBKTNV-1">
          <mxGeometry x="990" y="720" width="80" height="80" as="geometry" />
        </mxCell>
        <mxCell id="6Z5Gqcq6EbLOCwVpKTTv-37" value="&lt;span&gt;Throw validation this cannot be changed&lt;/span&gt;" style="whiteSpace=wrap;html=1;rounded=0;" vertex="1" parent="WIyWlLk6GJQsqaUBKTNV-1">
          <mxGeometry x="1130" y="730" width="120" height="60" as="geometry" />
        </mxCell>
      </root>
    </mxGraphModel>
  </diagram>
</mxfile>
